# Rhino

mtllib Geometry 2.mtl
usemtl diffuse_255_0_0_255
v -23.969627380371094 -63.367057800292969 18
v -30.029069900512695 -54.791908264160156 18
v -15.394479751586914 -57.3076171875 18
v -21.453920364379883 -48.732467651367188 18
v -19.68205451965332 -60.337337493896484 18
v -18.424200057983398 -53.020042419433594 18
v -25.741495132446289 -51.762187957763672 18
v -26.999347686767578 -59.079483032226562 18
v -15.394479751586914 -57.3076171875 18
v -15.394479751586914 -57.3076171875 27
v -21.453920364379883 -48.732467651367188 18
v -21.453920364379883 -48.732467651367188 27
v -18.424200057983398 -53.020042419433594 27
v -18.424200057983398 -53.020042419433594 18
v -21.453920364379883 -48.732467651367188 22.5
v -15.394479751586914 -57.3076171875 22.5
v -21.453920364379883 -48.732467651367188 18
v -21.453920364379883 -48.732467651367188 27
v -30.029069900512695 -54.791908264160156 18
v -30.029069900512695 -54.791908264160156 27
v -25.741495132446289 -51.762187957763672 27
v -25.741495132446289 -51.762187957763672 18
v -21.453920364379883 -48.732467651367188 22.5
v -30.029069900512695 -54.791908264160156 22.5
v 16.390407562255859 -47.704441070556641 9
v 16.390407562255859 -47.704441070556641 18
v 13.360686302185059 -43.416866302490234 9
v 13.360686302185059 -43.416866302490234 18
v 10.330965995788574 -39.129291534423828 9
v 10.330965995788574 -39.129291534423828 18
v 16.390407562255859 -47.704441070556641 13.5
v 10.330965995788574 -39.129291534423828 13.5
v -0.75988966226577759 -59.823322296142578 18
v 16.390407562255859 -47.704441070556641 18
v 13.360686302185059 -43.416866302490234 18
v -6.819331169128418 -51.248176574707031 18
v -3.7896103858947754 -55.535747528076172 18
v 7.8152589797973633 -53.763881683349609 18
v 10.330965995788574 -39.129291534423828 18
v 1.7558174133300781 -45.188732147216797 18
v 42.115852355957031 -29.526117324829102 0
v 42.115852355957031 -29.526117324829102 9
v 36.056411743164062 -20.950967788696289 0
v 36.056411743164062 -20.950967788696289 9
v 39.086132049560547 -25.238542556762695 9
v 39.086132049560547 -25.238542556762695 0
v 42.115852355957031 -29.526117324829102 4.5
v 36.056411743164062 -20.950967788696289 4.5
v 10.330965995788574 -39.129291534423828 9
v 42.115852355957031 -29.526117324829102 9
v 13.360686302185059 -43.416866302490234 9
v 39.086132049560547 -25.238542556762695 9
v 36.056411743164062 -20.950967788696289 9
v 27.48126220703125 -27.010410308837891 9
v 18.90611457824707 -33.069850921630859 9
v 16.390407562255859 -47.704441070556641 9
v 24.965555191040039 -41.645000457763672 9
v 33.540702819824219 -35.585559844970703 9
v -0.75988966226577759 -59.823322296142578 18
v -0.75988966226577759 -59.823322296142578 27
v -6.819331169128418 -51.248176574707031 18
v -6.819331169128418 -51.248176574707031 27
v -3.7896103858947754 -55.535747528076172 27
v -3.7896103858947754 -55.535747528076172 18
v -0.75988966226577759 -59.823322296142578 22.5
v -6.819331169128418 -51.248176574707031 22.5
v -17.910186767578125 -71.942207336425781 27
v -30.029069900512695 -54.791908264160156 27
v -15.394479751586914 -57.3076171875 27
v -0.75988966226577759 -59.823322296142578 27
v -6.819331169128418 -51.248176574707031 27
v -18.424200057983398 -53.020042419433594 27
v -21.453920364379883 -48.732467651367188 27
v -25.741495132446289 -51.762187957763672 27
v -3.7896103858947754 -55.535747528076172 27
v -11.106904983520508 -54.277896881103516 27
v -25.98944091796875 -60.508674621582031 27
v -21.949813842773438 -66.225440979003906 27
v -12.19342041015625 -67.902580261230469 27
v -6.4766554832458496 -63.862949371337891 27
v -30.029069900512695 -54.791908264160156 27
v -17.910186767578125 -71.942207336425781 0
v -17.910186767578125 -71.942207336425781 27
v -30.029069900512695 -54.791908264160156 18
v -26.999347686767578 -59.079483032226562 18
v -23.969627380371094 -63.367057800292969 18
v -17.910186767578125 -71.942207336425781 13.5
v -23.969627380371094 -63.367057800292969 0
v -30.029069900512695 -54.791908264160156 22.5
v -21.949813842773438 -66.225440979003906 27
v -25.98944091796875 -60.508674621582031 27
v -23.969627380371094 -63.367057800292969 0
v 36.056411743164062 -20.950967788696289 0
v 42.115852355957031 -29.526117324829102 0
v 39.086132049560547 -25.238542556762695 0
v 16.047731399536133 -35.089664459228516 0
v -3.9609482288360596 -49.228363037109375 0
v -17.910186767578125 -71.942207336425781 0
v 2.0984930992126465 -57.803508758544922 0
v 22.107172012329102 -43.664813995361328 0
v 36.056411743164062 -20.950967788696289 0
v -23.969627380371094 -63.367057800292969 0
v -23.969627380371094 -63.367057800292969 18
v -19.68205451965332 -60.337337493896484 18
v -15.394479751586914 -57.3076171875 18
v -15.394479751586914 -57.3076171875 27
v -11.106904983520508 -54.277896881103516 27
v -6.819331169128418 -51.248176574707031 27
v 10.330965995788574 -39.129291534423828 18
v 10.330965995788574 -39.129291534423828 13.5
v 10.330965995788574 -39.129291534423828 9
v 36.056411743164062 -20.950967788696289 9
v 36.056411743164062 -20.950967788696289 4.5
v -15.394479751586914 -57.3076171875 22.5
v -6.819331169128418 -51.248176574707031 22.5
v -6.819331169128418 -51.248176574707031 18
v 1.7558174133300781 -45.188732147216797 18
v 18.90611457824707 -33.069850921630859 9
v 27.48126220703125 -27.010410308837891 9
v 16.047731399536133 -35.089664459228516 0
v -3.9609482288360596 -49.228363037109375 0
v -17.910186767578125 -71.942207336425781 0
v -17.910186767578125 -71.942207336425781 27
v 42.115852355957031 -29.526117324829102 0
v 16.390407562255859 -47.704441070556641 9
v 16.390407562255859 -47.704441070556641 13.5
v 16.390407562255859 -47.704441070556641 18
v 12.102832794189453 -50.734161376953125 13.5
v 12.102832794189453 -50.734161376953125 6.75
v 27.109342575073242 -40.130138397216797 6.75
v 12.102832794189453 -50.734161376953125 10.125
v -2.9036767482757568 -61.338184356689453 13.5
v -2.9036767482757568 -61.338184356689453 6.75
v 12.102832794189453 -50.734161376953125 16.875
v 42.115852355957031 -29.526117324829102 4.5
v 42.115852355957031 -29.526117324829102 9
v 34.612598419189453 -34.828128814697266 6.75
v 27.109342575073242 -40.130138397216797 3.375
v 34.612598419189453 -34.828128814697266 3.375
v -0.75988966226577759 -59.823322296142578 18
v -0.75988966226577759 -59.823322296142578 22.5
v -0.75988966226577759 -59.823322296142578 27
v -2.9036767482757568 -61.338184356689453 16.875
v 4.5995779037475586 -56.036170959472656 13.5
v 4.5995779037475586 -56.036170959472656 16.875
v 7.8152589797973633 -53.763881683349609 18
v -6.4766554832458496 -63.862949371337891 27
v -12.19342041015625 -67.902580261230469 27
v 33.540702819824219 -35.585559844970703 9
v 24.965555191040039 -41.645000457763672 9
v -17.910186767578125 -71.942207336425781 13.5
v 2.0984930992126465 -57.803508758544922 0
v 22.107172012329102 -43.664813995361328 0
vt 0.89243131875991821 0
vt 0.78795373439788818 0
vt 0.89243131875991821 0.10301277041435242
vt 0.78795373439788818 0.10301277041435242
vt 0.89243131875991821 0.051506385207176208
vt 0.84019255638122559 0.10301277041435242
vt 0.78795373439788818 0.051506385207176208
vt 0.84019255638122559 0
vt 0.52698045969009399 0.15671642124652863
vt 0.43742823600769043 0.15671642124652863
vt 0.52698045969009399 0.26119402050971985
vt 0.43742823600769043 0.26119402050971985
vt 0.43742823600769043 0.20895522832870483
vt 0.52698045969009399 0.20895522832870483
vt 0.4822043776512146 0.26119402050971985
vt 0.4822043776512146 0.15671642124652863
vt 0.69575202465057373 0
vt 0.60619974136352539 0
vt 0.69575202465057373 0.10301277041435242
vt 0.60619974136352539 0.10301277041435242
vt 0.60619974136352539 0.051506385207176208
vt 0.69575202465057373 0.051506385207176208
vt 0.65097588300704956 0
vt 0.65097588300704956 0.10301277041435242
vt 0.35820895433425903 0.15671642124652863
vt 0.26865673065185547 0.15671642124652863
vt 0.35820895433425903 0.20895522832870483
vt 0.26865673065185547 0.20895522832870483
vt 0.35820895433425903 0.26119402050971985
vt 0.26865673065185547 0.26119402050971985
vt 0.31343284249305725 0.15671642124652863
vt 0.31343284249305725 0.26119402050971985
vt 0.73880594968795776 0.68656718730926514
vt 0.73880594968795776 0.89552241563796997
vt 0.68656718730926514 0.89552241563796997
vt 0.63432836532592773 0.68656718730926514
vt 0.68656718730926514 0.68656718730926514
vt 0.73880594968795776 0.79104477167129517
vt 0.63432836532592773 0.89552241563796997
vt 0.63432836532592773 0.79104477167129517
vt 0.52698045969009399 0
vt 0.43742823600769043 0
vt 0.52698045969009399 0.10447761416435242
vt 0.43742823600769043 0.10447761416435242
vt 0.43742823600769043 0.052238807082176208
vt 0.52698045969009399 0.052238807082176208
vt 0.4822043776512146 0
vt 0.4822043776512146 0.10447761416435242
vt 0.81716418266296387 0.68656718730926514
vt 0.9216417670249939 0.99853515625
vt 0.86940300464630127 0.68656718730926514
vt 0.86940300464630127 0.99853515625
vt 0.81716418266296387 0.99853515625
vt 0.81716418266296387 0.89454585313796997
vt 0.81716418266296387 0.79055649042129517
vt 0.9216417670249939 0.68656718730926514
vt 0.9216417670249939 0.79055649042129517
vt 0.9216417670249939 0.89454585313796997
vt 0.35820895433425903 0
vt 0.26865673065185547 0
vt 0.35820895433425903 0.10447761416435242
vt 0.26865673065185547 0.10447761416435242
vt 0.26865673065185547 0.052238807082176208
vt 0.35820895433425903 0.052238807082176208
vt 0.31343284249305725 0
vt 0.31343284249305725 0.10447761416435242
vt 0.81515496969223022 0.10447761416435242
vt 0.60619974136352539 0.10447761416435242
vt 0.7106773853302002 0.20822280645370483
vt 0.81515496969223022 0.31196799874305725
vt 0.7106773853302002 0.31196799874305725
vt 0.65843856334686279 0.20822280645370483
vt 0.60619974136352539 0.20822280645370483
vt 0.60619974136352539 0.15635021030902863
vt 0.7629162073135376 0.31196799874305725
vt 0.7106773853302002 0.26009538769721985
vt 0.67585152387619019 0.10447761416435242
vt 0.74550324678421021 0.10447761416435242
vt 0.81515496969223022 0.17364107072353363
vt 0.81515496969223022 0.24280454218387604
vt 0.26865673065185547 0.95522385835647583
vt 0.47761192917823792 0.68656718730926514
vt 0.47761192917823792 0.95522385835647583
vt 0.26865673065185547 0.86567163467407227
vt 0.32089552283287048 0.86567163467407227
vt 0.3731343150138855 0.86567163467407227
vt 0.47761192917823792 0.8208954930305481
vt 0.3731343150138855 0.68656718730926514
vt 0.26865673065185547 0.91044777631759644
vt 0.4079602062702179 0.95522385835647583
vt 0.33830845355987549 0.95522385835647583
vt 0.26865673065185547 0.68510234355926514
vt 0.99853515625 0.68510234355926514
vt 0.99853515625 0.58208954334259033
vt 0.99853515625 0.63359594345092773
vt 0.75524234771728516 0.68510234355926514
vt 0.51194953918457031 0.68510234355926514
vt 0.26865673065185547 0.58208954334259033
vt 0.51194953918457031 0.58208954334259033
vt 0.75524234771728516 0.58208954334259033
vt 0.26865673065185547 0.31343284249305725
vt 0.99853515625 0.31343284249305725
vt 0.99853515625 0.49156075716018677
vt 0.94640094041824341 0.49156075716018677
vt 0.89426678419113159 0.49156075716018677
vt 0.89426678419113159 0.58062469959259033
vt 0.84213262796401978 0.58062469959259033
vt 0.78999847173690796 0.58062469959259033
vt 0.58146178722381592 0.49156075716018677
vt 0.58146178722381592 0.44702878594398499
vt 0.58146178722381592 0.40249678492546082
vt 0.26865673065185547 0.40249678492546082
vt 0.26865673065185547 0.35796481370925903
vt 0.89426678419113159 0.53609269857406616
vt 0.78999847173690796 0.53609269857406616
vt 0.78999847173690796 0.49156075716018677
vt 0.68573009967803955 0.49156075716018677
vt 0.47719341516494751 0.40249678492546082
vt 0.37292507290840149 0.40249678492546082
vt 0.51194953918457031 0.31343284249305725
vt 0.75524234771728516 0.31343284249305725
vt 0.26719188690185547 0
vt 0 0
vt 0.26719188690185547 0.73134326934814453
vt 0.17812791466712952 0.41791045665740967
vt 0.13359594345092773 0.41791045665740967
vt 0.089063949882984161 0.41791045665740967
vt 0.13359594345092773 0.36567163467407227
vt 0.20039390027523041 0.36567163467407227
vt 0.20039390027523041 0.5485074520111084
vt 0.16699491441249847 0.36567163467407227
vt 0.13359594345092773 0.18283581733703613
vt 0.20039390027523041 0.18283581733703613
vt 0.1001969501376152 0.36567163467407227
vt 0.2226598858833313 0.73134326934814453
vt 0.17812791466712952 0.73134326934814453
vt 0.20039390027523041 0.63992536067962646
vt 0.23379288613796234 0.5485074520111084
vt 0.23379288613796234 0.63992536067962646
vt 0.089063949882984161 0.20895522832870483
vt 0.044531982392072678 0.20895522832870483
vt 0 0.20895522832870483
vt 0.1001969501376152 0.18283581733703613
vt 0.13359594345092773 0.2742537260055542
vt 0.1001969501376152 0.2742537260055542
vt 0.089063949882984161 0.31343284249305725
vt 0 0.13930349051952362
vt 0 0.06965174525976181
vt 0.17812791466712952 0.6268656849861145
vt 0.17812791466712952 0.52238810062408447
vt 0.13359594345092773 0
vt 0.26719188690185547 0.24378110468387604
vt 0.26719188690185547 0.48756220936775208
vn 0 0 -1
vn 0 0 -1
vn 0 0 -1
vn 0 0 -1
vn 0 0 -1
vn 0 0 -1
vn 0 0 -1
vn 0 0 -1
vn 0.81668078899383545 0.57708966732025146 0
vn 0.81668078899383545 0.57708966732025146 0
vn 0.81668078899383545 0.57708966732025146 0
vn 0.81668078899383545 0.57708966732025146 0
vn 0.81668078899383545 0.57708966732025146 0
vn 0.81668078899383545 0.57708966732025146 0
vn 0.81668078899383545 0.57708966732025146 0
vn 0.81668078899383545 0.57708966732025146 0
vn -0.57708966732025146 0.81668078899383545 0
vn -0.57708966732025146 0.81668078899383545 0
vn -0.57708966732025146 0.81668078899383545 0
vn -0.57708966732025146 0.81668078899383545 0
vn -0.57708966732025146 0.81668078899383545 0
vn -0.57708966732025146 0.81668078899383545 0
vn -0.57708966732025146 0.81668078899383545 0
vn -0.57708966732025146 0.81668078899383545 0
vn 0.81668078899383545 0.57708966732025146 0
vn 0.81668078899383545 0.57708966732025146 0
vn 0.81668078899383545 0.57708966732025146 0
vn 0.81668078899383545 0.57708966732025146 0
vn 0.81668078899383545 0.57708966732025146 0
vn 0.81668078899383545 0.57708966732025146 0
vn 0.81668078899383545 0.57708966732025146 0
vn 0.81668078899383545 0.57708966732025146 0
vn 0 0 1
vn 0 0 1
vn 0 0 1
vn 0 0 1
vn 0 0 1
vn 0 0 1
vn 0 0 1
vn 0 0 1
vn 0.81668078899383545 0.57708966732025146 0
vn 0.81668078899383545 0.57708966732025146 0
vn 0.81668078899383545 0.57708966732025146 0
vn 0.81668078899383545 0.57708966732025146 0
vn 0.81668078899383545 0.57708966732025146 0
vn 0.81668078899383545 0.57708966732025146 0
vn 0.81668078899383545 0.57708966732025146 0
vn 0.81668078899383545 0.57708966732025146 0
vn 0 0 1
vn 0 0 1
vn 0 0 1
vn 0 0 1
vn 0 0 1
vn 0 0 1
vn 0 0 1
vn 0 0 1
vn 0 0 1
vn 0 0 1
vn 0.81668078899383545 0.57708966732025146 0
vn 0.81668078899383545 0.57708966732025146 0
vn 0.81668078899383545 0.57708966732025146 0
vn 0.81668078899383545 0.57708966732025146 0
vn 0.81668078899383545 0.57708966732025146 0
vn 0.81668078899383545 0.57708966732025146 0
vn 0.81668078899383545 0.57708966732025146 0
vn 0.81668078899383545 0.57708966732025146 0
vn 0 0 1
vn 0 0 1
vn 0 0 1
vn 0 0 1
vn 0 0 1
vn 0 0 1
vn 0 0 1
vn 0 0 1
vn 0 0 1
vn 0 0 1
vn 0 0 1
vn 0 0 1
vn 0 0 1
vn 0 0 1
vn -0.81668078899383545 -0.57708966732025146 0
vn -0.81668078899383545 -0.57708966732025146 0
vn -0.81668078899383545 -0.57708966732025146 0
vn -0.81668078899383545 -0.57708966732025146 0
vn -0.81668078899383545 -0.57708966732025146 0
vn -0.81668078899383545 -0.57708966732025146 0
vn -0.81668078899383545 -0.57708966732025146 0
vn -0.81668078899383545 -0.57708966732025146 0
vn -0.81668078899383545 -0.57708966732025146 0
vn -0.81668078899383545 -0.57708966732025146 0
vn -0.81668078899383545 -0.57708966732025146 0
vn 0 0 -1
vn 0 0 -1
vn 0 0 -1
vn 0 0 -1
vn 0 0 -1
vn 0 0 -1
vn 0 0 -1
vn 0 0 -1
vn 0 0 -1
vn -0.57708966732025146 0.81668078899383545 0
vn -0.57708966732025146 0.81668078899383545 0
vn -0.57708966732025146 0.81668078899383545 0
vn -0.57708966732025146 0.81668078899383545 0
vn -0.57708966732025146 0.81668078899383545 0
vn -0.57708966732025146 0.81668078899383545 0
vn -0.57708966732025146 0.81668078899383545 0
vn -0.57708966732025146 0.81668078899383545 0
vn -0.57708966732025146 0.81668078899383545 0
vn -0.57708966732025146 0.81668078899383545 0
vn -0.57708966732025146 0.81668078899383545 0
vn -0.57708966732025146 0.81668078899383545 0
vn -0.57708966732025146 0.81668078899383545 0
vn -0.57708966732025146 0.81668078899383545 0
vn -0.57708966732025146 0.81668078899383545 0
vn -0.57708966732025146 0.81668078899383545 0
vn -0.57708966732025146 0.81668078899383545 0
vn -0.57708966732025146 0.81668078899383545 0
vn -0.57708966732025146 0.81668078899383545 0
vn -0.57708966732025146 0.81668078899383545 0
vn -0.57708966732025146 0.81668078899383545 0
vn 0.57708966732025146 -0.81668078899383545 0
vn 0.57708966732025146 -0.81668078899383545 0
vn 0.57708966732025146 -0.81668078899383545 0
vn 0.57708966732025146 -0.81668078899383545 0
vn 0.57708966732025146 -0.81668078899383545 0
vn 0.57708966732025146 -0.81668078899383545 0
vn 0.57708966732025146 -0.81668078899383545 0
vn 0.57708966732025146 -0.81668078899383545 0
vn 0.57708966732025146 -0.81668078899383545 0
vn 0.57708966732025146 -0.81668078899383545 0
vn 0.57708966732025146 -0.81668078899383545 0
vn 0.57708966732025146 -0.81668078899383545 0
vn 0.57708966732025146 -0.81668078899383545 0
vn 0.57708966732025146 -0.81668078899383545 0
vn 0.57708966732025146 -0.81668078899383545 0
vn 0.57708966732025146 -0.81668078899383545 0
vn 0.57708966732025146 -0.81668078899383545 0
vn 0.57708966732025146 -0.81668078899383545 0
vn 0.57708966732025146 -0.81668078899383545 0
vn 0.57708966732025146 -0.81668078899383545 0
vn 0.57708966732025146 -0.81668078899383545 0
vn 0.57708966732025146 -0.81668078899383545 0
vn 0.57708966732025146 -0.81668078899383545 0
vn 0.57708966732025146 -0.81668078899383545 0
vn 0.57708966732025146 -0.81668078899383545 0
vn 0.57708966732025146 -0.81668078899383545 0
vn 0.57708966732025146 -0.81668078899383545 0
vn 0.57708966732025146 -0.81668078899383545 0
vn 0.57708966732025146 -0.81668078899383545 0
vn 0.57708966732025146 -0.81668078899383545 0
vn 0.57708966732025146 -0.81668078899383545 0
vn 0.57708966732025146 -0.81668078899383545 0
f 8/8/8 5/5/5 1/1/1
f 8/8/8 2/2/2 7/7/7
f 6/6/6 5/5/5 8/8/8
f 8/8/8 7/7/7 6/6/6
f 6/6/6 7/7/7 4/4/4
f 3/3/3 5/5/5 6/6/6
f 16/16/16 9/9/9 14/14/14
f 16/16/16 13/13/13 10/10/10
f 13/13/13 16/16/16 14/14/14
f 13/13/13 14/14/14 15/15/15
f 11/11/11 15/15/15 14/14/14
f 23/23/23 17/17/17 22/22/22
f 23/23/23 21/21/21 18/18/18
f 24/24/24 23/23/23 22/22/22
f 23/23/23 24/24/24 21/21/21
f 31/31/31 25/25/25 27/27/27
f 31/31/31 28/28/28 26/26/26
f 28/28/28 31/31/31 27/27/27
f 27/27/27 32/32/32 28/28/28
f 32/32/32 30/30/30 28/28/28
f 29/29/29 32/32/32 27/27/27
f 37/37/37 33/33/33 38/38/38
f 37/37/37 40/40/40 36/36/36
f 35/35/35 37/37/37 38/38/38
f 37/37/37 35/35/35 40/40/40
f 47/47/47 41/41/41 46/46/46
f 47/47/47 45/45/45 42/42/42
f 45/45/45 47/47/47 46/46/46
f 46/46/46 48/48/48 45/45/45
f 48/48/48 44/44/44 45/45/45
f 43/43/43 48/48/48 46/46/46
f 51/51/51 56/56/56 57/57/57
f 49/49/49 51/51/51 55/55/55
f 57/57/57 55/55/55 51/51/51
f 55/55/55 57/57/57 58/58/58
f 52/52/52 58/58/58 50/50/50
f 53/53/53 54/54/54 52/52/52
f 58/58/58 52/52/52 54/54/54
f 65/65/65 59/59/59 64/64/64
f 65/65/65 63/63/63 60/60/60
f 63/63/63 65/65/65 64/64/64
f 64/64/64 66/66/66 63/63/63
f 66/66/66 62/62/62 63/63/63
f 61/61/61 66/66/66 64/64/64
f 78/78/78 67/67/67 79/79/79
f 69/69/69 78/78/78 79/79/79
f 74/74/74 68/68/68 77/77/77
f 69/69/69 72/72/72 77/77/77
f 74/74/74 77/77/77 72/72/72
f 69/69/69 77/77/77 78/78/78
f 69/69/69 79/79/79 80/80/80
f 75/75/75 80/80/80 70/70/70
f 76/76/76 80/80/80 75/75/75
f 74/74/74 72/72/72 73/73/73
f 75/75/75 71/71/71 76/76/76
f 80/80/80 76/76/76 69/69/69
f 89/89/89 84/84/84 85/85/85
f 81/81/81 89/89/89 91/91/91
f 85/85/85 91/91/91 89/89/89
f 91/91/91 85/85/85 86/86/86
f 82/82/82 87/87/87 88/88/88
f 86/86/86 87/87/87 90/90/90
f 83/83/83 90/90/90 87/87/87
f 91/91/91 86/86/86 90/90/90
f 99/99/99 98/98/98 97/97/97
f 99/99/99 97/97/97 100/100/100
f 95/95/95 94/94/94 100/100/100
f 93/93/93 95/95/95 96/96/96
f 100/100/100 96/96/96 95/95/95
f 119/119/119 113/113/113 101/101/101
f 112/112/112 113/113/113 119/119/119
f 120/120/120 119/119/119 101/101/101
f 118/118/118 119/119/119 120/120/120
f 120/120/120 111/111/111 118/118/118
f 109/109/109 110/110/110 117/117/117
f 111/111/111 117/117/117 110/110/110
f 121/121/121 117/117/117 111/111/111
f 121/121/121 111/111/111 120/120/120
f 105/105/105 116/116/116 121/121/121
f 104/104/104 105/105/105 102/102/102
f 121/121/121 102/102/102 105/105/105
f 103/103/103 104/104/104 102/102/102
f 115/115/115 116/116/116 105/105/105
f 108/108/108 115/115/115 107/107/107
f 114/114/114 107/107/107 115/115/115
f 107/107/107 114/114/114 106/106/106
f 116/116/116 117/117/117 121/121/121
f 145/145/145 143/143/143 132/132/132
f 134/134/134 145/145/145 144/144/144
f 131/131/131 128/128/128 144/144/144
f 144/144/144 132/132/132 133/133/133
f 133/133/133 129/129/129 131/131/131
f 131/131/131 144/144/144 133/133/133
f 137/137/137 130/130/130 138/138/138
f 151/151/151 122/122/122 133/133/133
f 152/152/152 133/133/133 122/122/122
f 153/153/153 129/129/129 152/152/152
f 151/151/151 132/132/132 143/143/143
f 152/152/152 129/129/129 133/133/133
f 123/123/123 151/151/151 143/143/143
f 148/148/148 123/123/123 143/143/143
f 140/140/140 141/141/141 143/143/143
f 148/148/148 141/141/141 147/147/147
f 148/148/148 143/143/143 141/141/141
f 145/145/145 134/134/134 146/146/146
f 147/147/147 141/141/141 142/142/142
f 145/145/145 146/146/146 140/140/140
f 145/145/145 140/140/140 143/143/143
f 129/129/129 138/138/138 130/130/130
f 139/139/139 138/138/138 153/153/153
f 139/139/139 153/153/153 124/124/124
f 125/125/125 129/129/129 130/130/130
f 139/139/139 135/135/135 137/137/137
f 149/149/149 130/130/130 137/137/137
f 135/135/135 136/136/136 137/137/137
f 124/124/124 135/135/135 139/139/139
f 136/136/136 149/149/149 137/137/137
f 128/128/128 131/131/131 126/126/126
f 125/125/125 131/131/131 129/129/129
f 134/134/134 128/128/128 126/126/126
f 130/130/130 150/150/150 125/125/125
f 150/150/150 130/130/130 149/149/149
f 146/146/146 134/134/134 127/127/127
f 138/138/138 129/129/129 153/153/153
f 13/13/13 15/15/15 12/12/12
f 24/24/24 22/22/22 19/19/19
f 24/24/24 20/20/20 21/21/21
f 35/35/35 38/38/38 34/34/34
f 35/35/35 39/39/39 40/40/40
f 55/55/55 58/58/58 54/54/54
f 87/87/87 86/86/86 88/88/88
f 98/98/98 92/92/92 97/97/97
f 97/97/97 96/96/96 100/100/100
f 115/115/115 105/105/105 114/114/114
f 145/145/145 132/132/132 144/144/144
f 134/134/134 144/144/144 128/128/128
f 137/137/137 138/138/138 139/139/139
f 151/151/151 133/133/133 132/132/132
f 131/131/131 125/125/125 126/126/126
f 134/134/134 126/126/126 127/127/127
