# Rhino

v -7.1707339286804199 6.8415699005126953 0
v -7.1707339286804199 6.8415699005126953 5
v 1.2679941654205322 6.8415699005126953 0
v 1.2679941654205322 6.8415699005126953 5
v 1.2679941654205322 6.8415699005126953 0
v 1.2679941654205322 6.8415699005126953 5
v 1.2679941654205322 11.352361679077148 0
v 1.2679941654205322 11.352361679077148 5
v 1.2679941654205322 11.352361679077148 0
v 1.2679941654205322 11.352361679077148 5
v -7.1707339286804199 11.352361679077148 0
v -7.1707339286804199 11.352361679077148 5
v -7.1707339286804199 11.352361679077148 0
v -7.1707339286804199 11.352361679077148 5
v -7.1707339286804199 6.8415699005126953 0
v -7.1707339286804199 6.8415699005126953 5
v -7.1707339286804199 6.8415699005126953 0
v 1.2679941654205322 6.8415699005126953 0
v 1.2679941654205322 11.352361679077148 0
v -7.1707339286804199 11.352361679077148 0
v -7.1707339286804199 6.8415699005126953 5
v 1.2679941654205322 6.8415699005126953 5
v 1.2679941654205322 11.352361679077148 5
v -7.1707339286804199 11.352361679077148 5
vn 0 -1 0
vn 0 -1 0
vn 0 -1 0
vn 0 -1 0
vn 1 0 0
vn 1 0 0
vn 1 0 0
vn 1 0 0
vn 0 1 0
vn 0 1 0
vn 0 1 0
vn 0 1 0
vn -1 0 0
vn -1 0 0
vn -1 0 0
vn -1 0 0
vn 0 0 -1
vn 0 0 -1
vn 0 0 -1
vn 0 0 -1
vn 0 0 1
vn 0 0 1
vn 0 0 1
vn 0 0 1
f 1//1 3//3 4//4 2//2
f 5//5 7//7 8//8 6//6
f 9//9 11//11 12//12 10//10
f 13//13 15//15 16//16 14//14
f 18//18 17//17 20//20
f 20//20 19//19 18//18
f 22//22 24//24 21//21
f 24//24 22//22 23//23
v 1.2679941654205322 6.8415699005126953 0
v 1.2679941654205322 6.8415699005126953 5
v 3.2604687213897705 6.8415699005126953 0
v 3.2604687213897705 6.8415699005126953 5
v 3.2604687213897705 6.8415699005126953 0
v 3.2604687213897705 6.8415699005126953 5
v 3.2604687213897705 10.458905220031738 0
v 3.2604687213897705 10.458905220031738 5
v 3.2604687213897705 10.458905220031738 0
v 3.2604687213897705 10.458905220031738 5
v 1.2679941654205322 10.458905220031738 0
v 1.2679941654205322 10.458905220031738 5
v 1.2679941654205322 10.458905220031738 0
v 1.2679941654205322 10.458905220031738 5
v 1.2679941654205322 6.8415699005126953 0
v 1.2679941654205322 6.8415699005126953 5
v 1.2679941654205322 6.8415699005126953 0
v 3.2604687213897705 6.8415699005126953 0
v 3.2604687213897705 10.458905220031738 0
v 1.2679941654205322 10.458905220031738 0
v 1.2679941654205322 6.8415699005126953 5
v 3.2604687213897705 6.8415699005126953 5
v 3.2604687213897705 10.458905220031738 5
v 1.2679941654205322 10.458905220031738 5
vn 0 -1 0
vn 0 -1 0
vn 0 -1 0
vn 0 -1 0
vn 1 0 0
vn 1 0 0
vn 1 0 0
vn 1 0 0
vn 0 1 0
vn 0 1 0
vn 0 1 0
vn 0 1 0
vn -1 0 0
vn -1 0 0
vn -1 0 0
vn -1 0 0
vn 0 0 -1
vn 0 0 -1
vn 0 0 -1
vn 0 0 -1
vn 0 0 1
vn 0 0 1
vn 0 0 1
vn 0 0 1
f 25//25 27//27 28//28 26//26
f 29//29 31//31 32//32 30//30
f 33//33 35//35 36//36 34//34
f 37//37 39//39 40//40 38//38
f 42//42 41//41 44//44
f 44//44 43//43 42//42
f 46//46 48//48 45//45
f 48//48 46//46 47//47
v 3.2604687213897705 5.641730785369873 0
v 3.2604687213897705 5.641730785369873 5
v 6.2713780403137207 5.641730785369873 0
v 6.2713780403137207 5.641730785369873 5
v 6.2713780403137207 5.641730785369873 0
v 6.2713780403137207 5.641730785369873 5
v 6.2713780403137207 8.6502370834350586 0
v 6.2713780403137207 8.6502370834350586 5
v 6.2713780403137207 8.6502370834350586 0
v 6.2713780403137207 8.6502370834350586 5
v 3.2604687213897705 8.6502370834350586 0
v 3.2604687213897705 8.6502370834350586 5
v 3.2604687213897705 8.6502370834350586 0
v 3.2604687213897705 8.6502370834350586 5
v 3.2604687213897705 5.641730785369873 0
v 3.2604687213897705 5.641730785369873 5
v 3.2604687213897705 5.641730785369873 0
v 6.2713780403137207 5.641730785369873 0
v 6.2713780403137207 8.6502370834350586 0
v 3.2604687213897705 8.6502370834350586 0
v 3.2604687213897705 5.641730785369873 5
v 6.2713780403137207 5.641730785369873 5
v 6.2713780403137207 8.6502370834350586 5
v 3.2604687213897705 8.6502370834350586 5
vn 0 -1 0
vn 0 -1 0
vn 0 -1 0
vn 0 -1 0
vn 1 0 0
vn 1 0 0
vn 1 0 0
vn 1 0 0
vn 0 1 0
vn 0 1 0
vn 0 1 0
vn 0 1 0
vn -1 0 0
vn -1 0 0
vn -1 0 0
vn -1 0 0
vn 0 0 -1
vn 0 0 -1
vn 0 0 -1
vn 0 0 -1
vn 0 0 1
vn 0 0 1
vn 0 0 1
vn 0 0 1
f 49//49 51//51 52//52 50//50
f 53//53 55//55 56//56 54//54
f 57//57 59//59 60//60 58//58
f 61//61 63//63 64//64 62//62
f 66//66 65//65 68//68
f 68//68 67//67 66//66
f 70//70 72//72 69//69
f 72//72 70//70 71//71
v 3.2604687213897705 3.831695556640625 0
v 3.2604687213897705 3.831695556640625 5
v 8.3511676788330078 3.831695556640625 0
v 8.3511676788330078 3.831695556640625 5
v 8.3511676788330078 3.831695556640625 0
v 8.3511676788330078 3.831695556640625 5
v 8.3511676788330078 5.641730785369873 0
v 8.3511676788330078 5.641730785369873 5
v 8.3511676788330078 5.641730785369873 0
v 8.3511676788330078 5.641730785369873 5
v 3.2604687213897705 5.641730785369873 0
v 3.2604687213897705 5.641730785369873 5
v 3.2604687213897705 5.641730785369873 0
v 3.2604687213897705 5.641730785369873 5
v 3.2604687213897705 3.831695556640625 0
v 3.2604687213897705 3.831695556640625 5
v 3.2604687213897705 3.831695556640625 0
v 8.3511676788330078 3.831695556640625 0
v 8.3511676788330078 5.641730785369873 0
v 3.2604687213897705 5.641730785369873 0
v 3.2604687213897705 3.831695556640625 5
v 8.3511676788330078 3.831695556640625 5
v 8.3511676788330078 5.641730785369873 5
v 3.2604687213897705 5.641730785369873 5
vn 0 -1 0
vn 0 -1 0
vn 0 -1 0
vn 0 -1 0
vn 1 0 0
vn 1 0 0
vn 1 0 0
vn 1 0 0
vn 0 1 0
vn 0 1 0
vn 0 1 0
vn 0 1 0
vn -1 0 0
vn -1 0 0
vn -1 0 0
vn -1 0 0
vn 0 0 -1
vn 0 0 -1
vn 0 0 -1
vn 0 0 -1
vn 0 0 1
vn 0 0 1
vn 0 0 1
vn 0 0 1
f 73//73 75//75 76//76 74//74
f 77//77 79//79 80//80 78//78
f 81//81 83//83 84//84 82//82
f 85//85 87//87 88//88 86//86
f 90//90 89//89 92//92
f 92//92 91//91 90//90
f 94//94 96//96 93//93
f 96//96 94//94 95//95
v 3.2604687213897705 1.3467525243759155 0
v 3.2604687213897705 1.3467525243759155 5
v 5.6862883567810059 1.3467525243759155 0
v 5.6862883567810059 1.3467525243759155 5
v 5.6862883567810059 1.3467525243759155 0
v 5.6862883567810059 1.3467525243759155 5
v 5.6862883567810059 3.831695556640625 0
v 5.6862883567810059 3.831695556640625 5
v 5.6862883567810059 3.831695556640625 0
v 5.6862883567810059 3.831695556640625 5
v 3.2604687213897705 3.831695556640625 0
v 3.2604687213897705 3.831695556640625 5
v 3.2604687213897705 3.831695556640625 0
v 3.2604687213897705 3.831695556640625 5
v 3.2604687213897705 1.3467525243759155 0
v 3.2604687213897705 1.3467525243759155 5
v 3.2604687213897705 1.3467525243759155 0
v 5.6862883567810059 1.3467525243759155 0
v 5.6862883567810059 3.831695556640625 0
v 3.2604687213897705 3.831695556640625 0
v 3.2604687213897705 1.3467525243759155 5
v 5.6862883567810059 1.3467525243759155 5
v 5.6862883567810059 3.831695556640625 5
v 3.2604687213897705 3.831695556640625 5
vn 0 -1 0
vn 0 -1 0
vn 0 -1 0
vn 0 -1 0
vn 1 0 0
vn 1 0 0
vn 1 0 0
vn 1 0 0
vn 0 1 0
vn 0 1 0
vn 0 1 0
vn 0 1 0
vn -1 0 0
vn -1 0 0
vn -1 0 0
vn -1 0 0
vn 0 0 -1
vn 0 0 -1
vn 0 0 -1
vn 0 0 -1
vn 0 0 1
vn 0 0 1
vn 0 0 1
vn 0 0 1
f 97//97 99//99 100//100 98//98
f 101//101 103//103 104//104 102//102
f 105//105 107//107 108//108 106//106
f 109//109 111//111 112//112 110//110
f 114//114 113//113 116//116
f 116//116 115//115 114//114
f 118//118 120//120 117//117
f 120//120 118//118 119//119
v 0 0 0
v 0 0 5
v 3.2604687213897705 0 0
v 3.2604687213897705 0 5
v 3.2604687213897705 0 0
v 3.2604687213897705 0 5
v 3.2604687213897705 3.831695556640625 0
v 3.2604687213897705 3.831695556640625 5
v 3.2604687213897705 3.831695556640625 0
v 3.2604687213897705 3.831695556640625 5
v 0 3.831695556640625 0
v 0 3.831695556640625 5
v 0 3.831695556640625 0
v 0 3.831695556640625 5
v 0 0 0
v 0 0 5
v 0 0 0
v 3.2604687213897705 0 0
v 3.2604687213897705 3.831695556640625 0
v 0 3.831695556640625 0
v 0 0 5
v 3.2604687213897705 0 5
v 3.2604687213897705 3.831695556640625 5
v 0 3.831695556640625 5
vn 0 -1 0
vn 0 -1 0
vn 0 -1 0
vn 0 -1 0
vn 1 0 0
vn 1 0 0
vn 1 0 0
vn 1 0 0
vn 0 1 0
vn 0 1 0
vn 0 1 0
vn 0 1 0
vn -1 0 0
vn -1 0 0
vn -1 0 0
vn -1 0 0
vn 0 0 -1
vn 0 0 -1
vn 0 0 -1
vn 0 0 -1
vn 0 0 1
vn 0 0 1
vn 0 0 1
vn 0 0 1
f 121//121 123//123 124//124 122//122
f 125//125 127//127 128//128 126//126
f 129//129 131//131 132//132 130//130
f 133//133 135//135 136//136 134//134
f 138//138 137//137 140//140
f 140//140 139//139 138//138
f 142//142 144//144 141//141
f 144//144 142//142 143//143
v 0 3.831695556640625 0
v 0 3.831695556640625 5
v 3.2604687213897705 3.831695556640625 0
v 3.2604687213897705 3.831695556640625 5
v 3.2604687213897705 3.831695556640625 0
v 3.2604687213897705 3.831695556640625 5
v 3.2604687213897705 6.8415699005126953 0
v 3.2604687213897705 6.8415699005126953 5
v 3.2604687213897705 6.8415699005126953 0
v 3.2604687213897705 6.8415699005126953 5
v 0 6.8415699005126953 0
v 0 6.8415699005126953 5
v 0 6.8415699005126953 0
v 0 6.8415699005126953 5
v 0 3.831695556640625 0
v 0 3.831695556640625 5
v 0 3.831695556640625 0
v 3.2604687213897705 3.831695556640625 0
v 3.2604687213897705 6.8415699005126953 0
v 0 6.8415699005126953 0
v 0 3.831695556640625 5
v 3.2604687213897705 3.831695556640625 5
v 3.2604687213897705 6.8415699005126953 5
v 0 6.8415699005126953 5
vn 0 -1 0
vn 0 -1 0
vn 0 -1 0
vn 0 -1 0
vn 1 0 0
vn 1 0 0
vn 1 0 0
vn 1 0 0
vn 0 1 0
vn 0 1 0
vn 0 1 0
vn 0 1 0
vn -1 0 0
vn -1 0 0
vn -1 0 0
vn -1 0 0
vn 0 0 -1
vn 0 0 -1
vn 0 0 -1
vn 0 0 -1
vn 0 0 1
vn 0 0 1
vn 0 0 1
vn 0 0 1
f 145//145 147//147 148//148 146//146
f 149//149 151//151 152//152 150//150
f 153//153 155//155 156//156 154//154
f 157//157 159//159 160//160 158//158
f 162//162 161//161 164//164
f 164//164 163//163 162//162
f 166//166 168//168 165//165
f 168//168 166//166 167//167
v -1.7790435552597046 4.9713459014892578 0
v -1.7790435552597046 4.9713459014892578 5
v 0 4.9713459014892578 0
v 0 4.9713459014892578 5
v 0 4.9713459014892578 0
v 0 4.9713459014892578 5
v 0 6.8415699005126953 0
v 0 6.8415699005126953 5
v 0 6.8415699005126953 0
v 0 6.8415699005126953 5
v -1.7790435552597046 6.8415699005126953 0
v -1.7790435552597046 6.8415699005126953 5
v -1.7790435552597046 6.8415699005126953 0
v -1.7790435552597046 6.8415699005126953 5
v -1.7790435552597046 4.9713459014892578 0
v -1.7790435552597046 4.9713459014892578 5
v -1.7790435552597046 4.9713459014892578 0
v 0 4.9713459014892578 0
v 0 6.8415699005126953 0
v -1.7790435552597046 6.8415699005126953 0
v -1.7790435552597046 4.9713459014892578 5
v 0 4.9713459014892578 5
v 0 6.8415699005126953 5
v -1.7790435552597046 6.8415699005126953 5
vn 0 -1 0
vn 0 -1 0
vn 0 -1 0
vn 0 -1 0
vn 1 0 0
vn 1 0 0
vn 1 0 0
vn 1 0 0
vn 0 1 0
vn 0 1 0
vn 0 1 0
vn 0 1 0
vn -1 0 0
vn -1 0 0
vn -1 0 0
vn -1 0 0
vn 0 0 -1
vn 0 0 -1
vn 0 0 -1
vn 0 0 -1
vn 0 0 1
vn 0 0 1
vn 0 0 1
vn 0 0 1
f 169//169 171//171 172//172 170//170
f 173//173 175//175 176//176 174//174
f 177//177 179//179 180//180 178//178
f 181//181 183//183 184//184 182//182
f 186//186 185//185 188//188
f 188//188 187//187 186//186
f 190//190 192//192 189//189
f 192//192 190//190 191//191
v -2.5604925155639648 1.9951889514923096 0
v -2.5604925155639648 1.9951889514923096 5
v 0 1.9951889514923096 0
v 0 1.9951889514923096 5
v 0 1.9951889514923096 0
v 0 1.9951889514923096 5
v 0 4.9713459014892578 0
v 0 4.9713459014892578 5
v 0 4.9713459014892578 0
v 0 4.9713459014892578 5
v -2.5604925155639648 4.9713459014892578 0
v -2.5604925155639648 4.9713459014892578 5
v -2.5604925155639648 4.9713459014892578 0
v -2.5604925155639648 4.9713459014892578 5
v -2.5604925155639648 1.9951889514923096 0
v -2.5604925155639648 1.9951889514923096 5
v -2.5604925155639648 1.9951889514923096 0
v 0 1.9951889514923096 0
v 0 4.9713459014892578 0
v -2.5604925155639648 4.9713459014892578 0
v -2.5604925155639648 1.9951889514923096 5
v 0 1.9951889514923096 5
v 0 4.9713459014892578 5
v -2.5604925155639648 4.9713459014892578 5
vn 0 -1 0
vn 0 -1 0
vn 0 -1 0
vn 0 -1 0
vn 1 0 0
vn 1 0 0
vn 1 0 0
vn 1 0 0
vn 0 1 0
vn 0 1 0
vn 0 1 0
vn 0 1 0
vn -1 0 0
vn -1 0 0
vn -1 0 0
vn -1 0 0
vn 0 0 -1
vn 0 0 -1
vn 0 0 -1
vn 0 0 -1
vn 0 0 1
vn 0 0 1
vn 0 0 1
vn 0 0 1
f 193//193 195//195 196//196 194//194
f 197//197 199//199 200//200 198//198
f 201//201 203//203 204//204 202//202
f 205//205 207//207 208//208 206//206
f 210//210 209//209 212//212
f 212//212 211//211 210//210
f 214//214 216//216 213//213
f 216//216 214//214 215//215
