# Rhino

mtllib Seperate_buildings.mtl
usemtl diffuse_0_255_29_255
v -282.5830078125 -20.303773880004883 0
v -282.5830078125 -20.303773880004883 15
v -282.5830078125 7.5935606956481934 0
v -282.5830078125 7.5935606956481934 15
v -282.5830078125 7.5935606956481934 0
v -282.5830078125 7.5935606956481934 15
v -356.02127075195312 7.5935606956481934 0
v -356.02127075195312 7.5935606956481934 15
v -356.02127075195312 7.5935606956481934 0
v -356.02127075195312 7.5935606956481934 15
v -356.02127075195312 -20.303773880004883 0
v -356.02127075195312 -20.303773880004883 15
v -356.02127075195312 -20.303773880004883 0
v -356.02127075195312 -20.303773880004883 15
v -282.5830078125 -20.303773880004883 0
v -282.5830078125 -20.303773880004883 15
v -282.5830078125 -20.303773880004883 0
v -282.5830078125 7.5935606956481934 0
v -356.02127075195312 7.5935606956481934 0
v -356.02127075195312 -20.303773880004883 0
v -282.5830078125 -20.303773880004883 15
v -282.5830078125 7.5935606956481934 15
v -356.02127075195312 7.5935606956481934 15
v -356.02127075195312 -20.303773880004883 15
vt 0 0
vt 0 0.60593980550765991
vt 0.13764825463294983 0
vt 0.13764825463294983 0.60593980550765991
vt 0.13764825463294983 0
vt 0.13764825463294983 0.60593980550765991
vt 0.5 0
vt 0.5 0.60593980550765991
vt 0.5 0
vt 0.5 0.60593980550765991
vt 0.63764822483062744 0
vt 0.63764822483062744 0.60593980550765991
vt 0.63764822483062744 0
vt 0.63764822483062744 0.60593980550765991
vt 1 0
vt 1 0.60593980550765991
vt 0.36235174536705017 1
vt 0.36235174536705017 0.60594040155410767
vt 0 0.60594040155410767
vt 0 1
vt 1 0.60594040155410767
vt 1 1
vt 0.63764822483062744 1
vt 0.63764822483062744 0.60594040155410767
vn 1 0 0
vn 1 0 0
vn 1 0 0
vn 1 0 0
vn 0 1 0
vn 0 1 0
vn 0 1 0
vn 0 1 0
vn -1 0 0
vn -1 0 0
vn -1 0 0
vn -1 0 0
vn 0 -1 0
vn 0 -1 0
vn 0 -1 0
vn 0 -1 0
vn 0 0 -1
vn 0 0 -1
vn 0 0 -1
vn 0 0 -1
vn 0 0 1
vn 0 0 1
vn 0 0 1
vn 0 0 1
f 1/1/1 3/3/3 4/4/4
f 5/5/5 7/7/7 8/8/8
f 9/9/9 11/11/11 12/12/12
f 13/13/13 15/15/15 16/16/16
f 17/17/17 20/20/20 19/19/19
f 19/19/19 18/18/18 17/17/17
f 21/21/21 23/23/23 24/24/24
f 23/23/23 21/21/21 22/22/22
f 1/1/1 4/4/4 2/2/2
f 5/5/5 8/8/8 6/6/6
f 9/9/9 12/12/12 10/10/10
f 13/13/13 16/16/16 14/14/14
usemtl diffuse_0_255_29_255
v -272.54873657226562 12.864631652832031 0
v -272.54873657226562 12.864631652832031 15
v -244.65139770507812 12.864631652832031 0
v -244.65139770507812 12.864631652832031 15
v -244.65139770507812 12.864631652832031 0
v -244.65139770507812 12.864631652832031 15
v -244.65139770507812 86.302894592285156 0
v -244.65139770507812 86.302894592285156 15
v -244.65139770507812 86.302894592285156 0
v -244.65139770507812 86.302894592285156 15
v -272.54873657226562 86.302894592285156 0
v -272.54873657226562 86.302894592285156 15
v -272.54873657226562 86.302894592285156 0
v -272.54873657226562 86.302894592285156 15
v -272.54873657226562 12.864631652832031 0
v -272.54873657226562 12.864631652832031 15
v -272.54873657226562 12.864631652832031 0
v -244.65139770507812 12.864631652832031 0
v -244.65139770507812 86.302894592285156 0
v -272.54873657226562 86.302894592285156 0
v -272.54873657226562 12.864631652832031 15
v -244.65139770507812 12.864631652832031 15
v -244.65139770507812 86.302894592285156 15
v -272.54873657226562 86.302894592285156 15
vt 0 0
vt 0 0.60593980550765991
vt 0.13764825463294983 0
vt 0.13764825463294983 0.60593980550765991
vt 0.13764825463294983 0
vt 0.13764825463294983 0.60593980550765991
vt 0.5 0
vt 0.5 0.60593980550765991
vt 0.5 0
vt 0.5 0.60593980550765991
vt 0.63764822483062744 0
vt 0.63764822483062744 0.60593980550765991
vt 0.63764822483062744 0
vt 0.63764822483062744 0.60593980550765991
vt 1 0
vt 1 0.60593980550765991
vt 0.36235174536705017 1
vt 0.36235174536705017 0.60594040155410767
vt 0 0.60594040155410767
vt 0 1
vt 1 0.60594040155410767
vt 1 1
vt 0.63764822483062744 1
vt 0.63764822483062744 0.60594040155410767
vn 0 -1 0
vn 0 -1 0
vn 0 -1 0
vn 0 -1 0
vn 1 0 0
vn 1 0 0
vn 1 0 0
vn 1 0 0
vn 0 1 0
vn 0 1 0
vn 0 1 0
vn 0 1 0
vn -1 0 0
vn -1 0 0
vn -1 0 0
vn -1 0 0
vn 0 0 -1
vn 0 0 -1
vn 0 0 -1
vn 0 0 -1
vn 0 0 1
vn 0 0 1
vn 0 0 1
vn 0 0 1
f 25/25/25 27/27/27 28/28/28
f 29/29/29 31/31/31 32/32/32
f 33/33/33 35/35/35 36/36/36
f 37/37/37 39/39/39 40/40/40
f 42/42/42 41/41/41 44/44/44
f 44/44/44 43/43/43 42/42/42
f 46/46/46 48/48/48 45/45/45
f 48/48/48 46/46/46 47/47/47
f 25/25/25 28/28/28 26/26/26
f 29/29/29 32/32/32 30/30/30
f 33/33/33 36/36/36 34/34/34
f 37/37/37 40/40/40 38/38/38
